<?xml version="1.0" standalone="no"?><!DOCTYPE svg PUBLIC "-//W3C//DTD SVG 1.1//EN" "http://www.w3.org/Graphics/SVG/1.1/DTD/svg11.dtd"><svg class="icon" style="" viewBox="0 0 1024 1024" version="1.1" xmlns="http://www.w3.org/2000/svg" p-id="6569" xmlns:xlink="http://www.w3.org/1999/xlink" width="200" height="200"><defs><style type="text/css"><![CDATA[

]]></style></defs><path d="M560.810633 495.269311l292.352153-292.352153c9.209553-9.209553 9.209553-24.047167 0-33.25672s-24.047167-9.209553-33.25672 0L527.553912 462.012591 235.201759 169.660438c-9.209553-9.209553-24.047167-9.209553-33.25672 0s-9.209553 24.047167 0 33.25672L494.297192 495.269311 201.945038 787.621465c-9.209553 9.209553-9.209553 24.047167 0 33.25672s24.047167 9.209553 33.25672 0l292.352153-292.352153 292.352153 292.352153c9.209553 9.209553 24.047167 9.209553 33.25672 0s9.209553-24.047167 0-33.25672L560.810633 495.269311z" p-id="6570"></path></svg>