<?xml version="1.0" standalone="no"?><!DOCTYPE svg PUBLIC "-//W3C//DTD SVG 1.1//EN"
        "http://www.w3.org/Graphics/SVG/1.1/DTD/svg11.dtd">
<svg class="icon" style="" viewBox="0 0 1024 1024" version="1.1" xmlns="http://www.w3.org/2000/svg" p-id="21577"
     xmlns:xlink="http://www.w3.org/1999/xlink" width="200" height="200">
    <defs>
        <style type="text/css"><![CDATA[

]]></style>
    </defs>
    <path d="M342.850555 502.814804c0 4.644787-3.765767 8.40953-8.410554 8.40953l-92.900853 0c-4.644787 0-8.40953-3.764744-8.40953-8.40953l0-92.900853c0-4.644787 3.764744-8.410554 8.40953-8.410554l92.900853 0c4.644787 0 8.410554 3.765767 8.410554 8.410554L342.850555 502.814804zM959.433472 146.765645l0 438.338327-0.227174 0c-2.599198 112.873744-131.230833 206.16857-282.213523 208.464869l-0.042979 0.059352L427.089122 793.628192l-7.260357 0c-11.268648 0-20.403702-9.135054-20.403702-20.403702l0-7.260357 0-55.987129 0-7.261381c0-11.268648 9.135054-20.402679 20.402679-20.402679l7.260357 0 252.256234 0c90.518596-2.290159 159.538553-29.324886 161.995511-97.207949l-0.239454 0L841.10039 261.553994c0-15.278985-12.386098-27.665083-27.665083-27.665083L343.833953 233.888911l0-0.050142c-93.380784 0.3776-165.069523 32.761148-166.734442 102.364389l-0.786922 0 0 287.506063 0 37.446867 0.093121-15.314801 0 9.247618c0 0.005117 0 6.553253 0 11.539824 0 11.246135 3.204995 20.228717 9.782807 29.349445 2.226714 3.087315 5.170766 6.566556 8.209986 8.754385l29.346375 27.773554 0.048095-0.022513 77.598332 75.237565c23.144116 22.265096 23.144116 58.365292 0 80.630389-23.14514 22.265096-60.668755 22.265096-83.811848 0l-28.329209-27.466562-0.11154 0.107447L80.458473 755.584738c-8.846482-8.580422-16.084327-25.682939-16.084327-38.006616l0-13.316284 0.092098-9.122775 0-12.614296 0-9.033747 0-52.482305L64.466244 334.854441l0.829901 0c2.625804-113.476471 126.603443-214.351949 278.537807-215.739553l0-0.014326 587.934436 0 7.260357 0c11.268648 0 20.403702 9.135054 20.403702 20.403702L959.432449 146.765645zM457.341123 502.814804l0-92.900853c0-4.644787 3.765767-8.410554 8.410554-8.410554l92.900853 0c4.644787 0 8.410554 3.765767 8.410554 8.410554l0 92.900853c0 4.644787-3.765767 8.40953-8.410554 8.40953L465.751676 511.224334C461.10689 511.225357 457.341123 507.45959 457.341123 502.814804zM681.553651 502.814804l0-92.900853c0-4.644787 3.765767-8.410554 8.410554-8.410554l92.900853 0c4.644787 0 8.410554 3.765767 8.410554 8.410554l0 92.900853c0 4.644787-3.765767 8.40953-8.410554 8.40953l-92.900853 0C685.318394 511.225357 681.553651 507.45959 681.553651 502.814804z"
          p-id="21578"></path>
</svg>