<?xml version="1.0" standalone="no"?><!DOCTYPE svg PUBLIC "-//W3C//DTD SVG 1.1//EN" "http://www.w3.org/Graphics/SVG/1.1/DTD/svg11.dtd"><svg class="icon" style="" viewBox="0 0 1024 1024" version="1.1" xmlns="http://www.w3.org/2000/svg" p-id="2505" xmlns:xlink="http://www.w3.org/1999/xlink" width="200" height="200"><defs><style type="text/css"><![CDATA[

]]></style></defs><path d="M138.687 658.943c13.874 3.724 28.474 5.46 45.812 5.46l118.789 0.476c-14.743 67.441-17.225 168.622-17.225 228.951 0 70.098 56.895 127.127 126.833 127.127 69.929 0 126.825-57.029 126.825-127.127v-25.43c0-140.197 113.789-254.253 253.663-254.253h126.854c55.949 0 101.452-45.613 101.452-101.691v-406.811c0-56.137-45.503-101.691-101.452-101.691h-126.854c-14.018 0-25.348 11.362-25.348 25.411v535.080c-156.031 12.985-279.036 144.279-279.036 303.953v25.43c0 42.062-34.148 76.284-76.101 76.283-41.963 0-76.111-34.222-76.112-76.284 0-114.531 8.881-206.203 23.708-245.184 2.982-7.802 1.952-16.565-2.791-23.444-4.69-6.861-12.481-11.027-20.802-11.055l-152.287-0.586c-12.898 0-23.338-1.21-32.831-3.724-67.562-18.138-107.791-87.981-89.705-155.696 20.243-75.723 123.843-338.089 133.586-362.714 13.739-22.668 37.968-36.151 65.051-36.21 1.566 0 3.071-0.168 4.545-0.45h375.911c14.047 0 25.379-11.357 25.379-25.402 0-14.047-11.332-25.411-25.379-25.411h-380.487c-1.731 0-3.434 0.167-5.075 0.506-43.385 1.79-83.168 25.581-104.751 63.015-0.643 1.065-1.142 2.183-1.588 3.359-4.667 11.698-114.297 288.225-136.181 370.098-25.349 94.804 30.985 192.579 125.598 218.010zM818.755 54.768h101.483c27.943 0 50.721 22.839 50.721 50.876v406.811c0 28.035-22.778 50.876-50.721 50.876h-101.483v-508.563z" p-id="2506"></path></svg>