<?xml version="1.0" standalone="no"?><!DOCTYPE svg PUBLIC "-//W3C//DTD SVG 1.1//EN" "http://www.w3.org/Graphics/SVG/1.1/DTD/svg11.dtd"><svg class="icon" style="" viewBox="0 0 1024 1024" version="1.1" xmlns="http://www.w3.org/2000/svg" p-id="1646" xmlns:xlink="http://www.w3.org/1999/xlink" width="200" height="200"><defs><style type="text/css"><![CDATA[

]]></style></defs><path d="M658.017912 521.428927c15.699196-4.399891 30.782054-8.808319 45.231479-13.208209 12.566205-3.749313 25.457681-7.532882 38.640225-11.307879 13.199654-3.766441 24.190799-7.216149 32.990563-10.357696l-13.199654 49.948086c-3.766441 13.833104-7.224704 24.190799-10.357696 31.090232-6.283094 16.983206-13.679006 32.665274-22.170609 47.131828-8.457365 14.449425-16.469599 27.01563-24.019591 37.698614-8.799764 12.566205-17.907688 24.190799-27.323791 34.856656l-115.920657 34.873784 95.188138 16.966078c-12.566205 10.682984-26.07402 21.674129-40.523428 32.973435-12.566205 9.416085-26.86155 19.328668-42.886017 29.686363s-32.802244 19.944989-50.4189 28.744753c-17.582417 8.799764-37.21069 13.353735-58.893375 13.661895-21.674129 0.325289-42.252568-1.095691-61.726761-4.24581-22.61574-3.132992-45.231479-8.457365-67.847219-16.007357 6.907988-10.682984 14.440853-22.632867 22.61574-35.815394 6.907988-11.299306 15.228383-24.653041 24.978329-40.044076 9.732819-15.408146 19.936434-32.511194 30.627973-51.36051 30.157177-50.881141 59.355616-100.837782 87.638127-149.85283 28.256829-48.99792 53.714527-93.279234 76.330266-132.869624 25.748731-45.856373 50.57298-89.213187 74.455601-130.044793-29.549411 33.923618-60.622515 71.930376-93.304917 114.028881-28.282512 35.815394-59.68946 78.376123-94.246527 127.690759-34.548495 49.323209-69.721884 103.183244-105.537278 161.614377-7.532882 11.949883-16.024485 25.765859-25.432015 41.465038-9.433213 15.716307-19.320112 32.357114-29.703491 49.939531-10.357696 17.616655-21.032125 35.661313-32.040398 54.202451-10.9997 18.524027-21.82821 36.602924-32.502639 54.185323C213.518446 927.90449 187.761159 970.636427 161.378979 1015.234474c0.633449-13.199654 3.141547-30.148622 7.541437-50.881141 3.766441-17.582417 10.04098-39.598945 18.840743-65.981126s21.374524-57.472395 37.690042-93.287789c10.700112-22.61574 18.866426-40.198157 24.516088-52.781472 5.641089-12.566205 10.04098-22.290451 13.199654-29.207012 3.132992-7.532882 5.641089-12.566205 7.532882-15.065747-3.132992-3.766441-3.766441-11.316434-1.891776-22.632867 1.266899-10.049535 4.870687-24.653041 10.837065-43.8105 5.974933-19.157459 16.178566-46.019009 30.627973-80.584632 14.457981-35.173389 33.461359-73.026067 57.027282-113.558067 23.540222-40.514873 50.085056-80.73014 79.625894-120.62869 29.523728-39.881423 61.564125-78.521648 96.12973-115.903529 34.548495-37.390454 69.88452-70.526524 106.008074-99.416802C685.187606 82.587695 721.328288 58.867692 757.434715 40.335109 793.55827 21.811099 828.586134 11.290751 862.518307 8.765526c0.633449 21.98229-1.57506 51.052332-6.591272 87.184459-5.033323 36.106427-11.316434 74.746652-18.849298 115.894974-7.532882 41.16545-16.024485 82.938649-25.457681 125.345297-9.416085 42.406648-18.524027 80.892793-27.323791 115.441288L658.017912 521.428927z" p-id="1647"></path></svg>