<?xml version="1.0" standalone="no"?><!DOCTYPE svg PUBLIC "-//W3C//DTD SVG 1.1//EN" "http://www.w3.org/Graphics/SVG/1.1/DTD/svg11.dtd"><svg class="icon" style="" viewBox="0 0 1024 1024" version="1.1" xmlns="http://www.w3.org/2000/svg" p-id="1823" xmlns:xlink="http://www.w3.org/1999/xlink" width="200" height="200"><defs><style type="text/css"><![CDATA[

]]></style></defs><path d="M1.265759 511.311487C1.265759 732.688531 140.402137 920.908657 334.355718 990.002119 360.449874 996.75263 356.457858 977.692365 356.457858 964.786975L356.457858 876.931064C205.637528 894.998606 199.600821 793.145311 189.377364 776.169763 168.833084 740.531036 120.539421 731.497267 134.949627 714.521715 169.319915 696.454173 204.274401 719.088239 244.876129 780.14065 274.280738 824.416059 331.337364 816.970646 360.449874 809.525228 366.778681 782.920274 380.409956 759.194214 399.006911 740.630311 242.928804 712.337727 177.693413 615.050957 177.693413 499.398824 177.693413 443.409293 195.803537 391.78774 231.439586 350.192681 208.850615 281.496306 233.581644 222.925699 236.892097 214.189743 301.445924 208.233411 368.433907 261.244774 373.691685 265.414207 410.398763 255.387714 452.266254 249.927741 499.099423 249.927741 546.224689 249.927741 588.28691 255.486986 625.188721 265.612752 637.748969 255.884075 699.966005 210.417399 759.943619 215.976643 763.156705 224.712598 787.303539 281.992668 766.077694 349.696319 802.103206 391.39065 820.408062 443.310019 820.408062 499.597365 820.408062 615.448044 754.880573 712.834089 598.218269 740.928127 624.409793 767.235265 640.572592 803.767439 640.572592 844.171231L640.572592 971.636756C641.448886 981.762523 640.572592 991.98756 657.319588 991.98756 854.09679 924.383183 995.764691 734.773248 995.764691 511.410762 995.764691 231.363837 773.088063 4.427549 498.515223 4.427549 223.845018 4.328277 1.265759 231.264565 1.265759 511.311487L1.265759 511.311487Z" p-id="1824" fill="#ffffff"></path></svg>