<?xml version="1.0" standalone="no"?><!DOCTYPE svg PUBLIC "-//W3C//DTD SVG 1.1//EN" "http://www.w3.org/Graphics/SVG/1.1/DTD/svg11.dtd"><svg class="icon" style="" viewBox="0 0 1024 1024" version="1.1" xmlns="http://www.w3.org/2000/svg" p-id="7289" xmlns:xlink="http://www.w3.org/1999/xlink" width="200" height="200"><defs><style type="text/css"><![CDATA[

]]></style></defs><path d="M901.910999 81.679261 122.089001 81.679261C53.306465 81.679261 0 134.985726 0 203.768262l0 616.463476c0 67.922754 53.306465 122.089001 122.089001 122.089001l779.821998 0c67.922754 0 122.089001-53.306465 122.089001-122.089001L1024 203.768262C1024 134.985726 969.833753 81.679261 901.910999 81.679261zM122.089001 130.686818l779.821998 0c41.269521 0 73.081444 31.811923 73.081444 73.081444l0 375.724601c-31.811923-14.616289-66.203191-22.354324-99.734677-22.354324-85.118388 0-163.358522 43.848866-209.786734 114.350966-78.240134-104.893367-202.048699-175.395466-343.912678-175.395466-102.314022 0-197.74979 34.391268-275.130143 99.734677L46.428212 203.768262C49.007557 162.498741 82.539043 130.686818 122.089001 130.686818zM49.007557 817.652393 49.007557 656.873216 51.586902 659.452561c70.502099-73.081444 168.517212-114.350966 270.831234-114.350966 197.74979 0 361.108312 153.900924 375.724601 346.492024L119.509656 891.593619C82.539043 890.733837 49.007557 858.921914 49.007557 817.652393zM901.910999 890.733837 748.010076 890.733837c-5.15869-63.623846-22.354324-122.089001-51.586902-172.816121 34.391268-67.922754 102.314022-111.77162 177.974811-111.77162 34.391268 0 67.922754 9.457599 99.734677 26.653233l0 184.853065C974.992443 858.921914 943.180521 890.733837 901.910999 890.733837zM750.589421 432.470193c55.88581 0 102.314022-46.428212 102.314022-102.314022s-46.428212-102.314022-102.314022-102.314022c-55.88581 0-102.314022 46.428212-102.314022 102.314022S694.70361 432.470193 750.589421 432.470193zM750.589421 276.849706c29.232578 0 53.306465 24.073887 53.306465 53.306465 0 29.232578-24.073887 53.306465-53.306465 53.306465-29.232578 0-53.306465-24.073887-53.306465-53.306465C697.282955 300.923594 721.356843 276.849706 750.589421 276.849706z" p-id="7290"></path></svg>