<?xml version="1.0" standalone="no"?><!DOCTYPE svg PUBLIC "-//W3C//DTD SVG 1.1//EN" "http://www.w3.org/Graphics/SVG/1.1/DTD/svg11.dtd"><svg class="icon" style="" viewBox="0 0 1024 1024" version="1.1" xmlns="http://www.w3.org/2000/svg" p-id="15308" xmlns:xlink="http://www.w3.org/1999/xlink" width="200" height="200"><defs><style type="text/css"><![CDATA[

]]></style></defs><path d="M922.117172 58.181818 349.478788 58.181818c-17.842424 0-32.452525 14.480808-32.452525 32.452525l0 160.452525 64.775758 50.424242 0-178.424242 415.676768 0-167.305051 94.90101c-10.084848 5.818182-16.420202 16.549495-16.420202 28.185859l0 501.39798L381.931313 747.571717l0-137.050505-64.775758 53.010101 0 116.492929c0 17.842424 14.480808 32.452525 32.452525 32.452525L613.753535 812.476768l0 123.086869c0 11.507071 6.076768 22.238384 16.032323 27.927273 5.042424 2.973737 10.60202 4.39596 16.290909 4.39596 5.559596 0 10.989899-1.422222 16.032323-4.266667L931.684848 810.666667c13.317172-4.137374 22.884848-16.290909 22.884848-30.771717L954.569697 90.634343C954.569697 72.662626 940.088889 58.181818 922.117172 58.181818L922.117172 58.181818zM922.117172 58.181818M114.812121 506.569697l173.381818 0 0 84.557576c0 7.369697 4.137374 13.963636 10.60202 17.325253 2.844444 1.422222 5.818182 2.068687 8.791919 2.068687 4.008081 0 8.016162-1.292929 11.377778-3.749495l178.812121-129.939394c5.042424-3.620202 8.016162-9.567677 8.016162-15.773737 0-6.206061-2.973737-12.024242-8.016162-15.773737L318.965657 315.60404c-5.947475-4.266667-13.705051-4.913131-20.169697-1.551515-6.464646 3.361616-10.60202 9.955556-10.60202 17.325253l0 84.557576L114.812121 415.935354c-25.082828 0-45.381818 20.29899-45.381818 45.381818C69.430303 486.270707 89.729293 506.569697 114.812121 506.569697L114.812121 506.569697zM460.541414 506.569697" p-id="15309"></path></svg>