<?xml version="1.0" standalone="no"?><!DOCTYPE svg PUBLIC "-//W3C//DTD SVG 1.1//EN" "http://www.w3.org/Graphics/SVG/1.1/DTD/svg11.dtd"><svg class="icon" style="" viewBox="0 0 1024 1024" version="1.1" xmlns="http://www.w3.org/2000/svg" p-id="5614" xmlns:xlink="http://www.w3.org/1999/xlink" width="200" height="200"><defs><style type="text/css"><![CDATA[

]]></style></defs><path d="M512.013815 821.496913c42.595121 0 83.673701-5.52483 122.596176-15.360849l142.815683 91.231841-0.090051-159.66442c103.619986-68.7672 170.716126-176.456874 170.716126-298.048163 0-207.938889-195.217147-376.470257-436.036911-376.470257-240.847393 0-436.065564 168.530344-436.065564 376.470257C75.948251 647.593188 271.165398 821.496913 512.013815 821.496913zM512.013815 100.831476c219.87064 0 398.11523 151.681608 398.11523 338.823845 0 115.096365-67.551512 216.619596-170.624029 277.858332l0 36.06745-0.63752 75.930343-59.749826-36.796044c0.698918-0.242524 1.39579-0.393973 2.065032-0.63752l-34.488489-28.570709c-42.140773 12.935614-87.316671 20.311605-134.679375 20.311605-219.899292 0-398.144906-157.022243-398.144906-344.163457C113.867886 252.513084 292.114522 100.831476 512.013815 100.831476zM308.173267 413.909961c26.172079 0 47.425126 21.221324 47.425126 47.391357 0 26.172079-21.253046 47.393403-47.425126 47.393403-26.170033 0-47.361681-21.221324-47.361681-47.393403C260.811586 435.131285 282.003234 413.909961 308.173267 413.909961zM507.278977 413.909961c26.170033 0 47.361681 21.221324 47.361681 47.391357 0 26.172079-21.191648 47.393403-47.361681 47.393403-26.200732 0-47.423079-21.221324-47.423079-47.393403C459.855898 435.131285 481.077222 413.909961 507.278977 413.909961zM706.320219 413.909961c26.170033 0 47.422056 21.221324 47.422056 47.391357 0 26.172079-21.252023 47.393403-47.422056 47.393403-26.169009 0-47.393403-21.221324-47.393403-47.393403C658.926816 435.131285 680.151209 413.909961 706.320219 413.909961z" p-id="5615"></path></svg>