<?xml version="1.0" standalone="no"?><!DOCTYPE svg PUBLIC "-//W3C//DTD SVG 1.1//EN" "http://www.w3.org/Graphics/SVG/1.1/DTD/svg11.dtd"><svg class="icon" style="" viewBox="0 0 1024 1024" version="1.1" xmlns="http://www.w3.org/2000/svg" p-id="16011" xmlns:xlink="http://www.w3.org/1999/xlink" width="200" height="200"><defs><style type="text/css"><![CDATA[

]]></style></defs><path d="M765.152 425.632 765.152 313.152c0-139.84-113.344-253.152-253.12-253.152-139.84 0-253.152 113.344-253.152 253.152l0 112.48c-46.592 0-84.384 37.76-84.384 84.384l0 196.864c0 139.808 113.344 253.12 253.152 253.12l168.736 0c139.808 0 253.12-113.312 253.12-253.12l0-196.864C849.536 463.36 811.712 425.632 765.152 425.632L765.152 425.632zM338.016 313.504c0-101.056 68.672-175.616 169.696-175.616 101.024 0 179.648 74.56 179.648 175.616l0 104.48L338.016 417.984 338.016 313.504 338.016 313.504zM767.36 595.2l0 104.352c0 100.64-81.952 182.464-182.624 182.464L437.12 882.016c-100.64 0-182.56-81.888-182.56-182.464l0-175.456c0-14.368 11.712-26.048 26.048-26.048l52.16 0 356.288 0 52.192 0c14.336 0 26.08 11.712 26.08 26.048L767.328 595.2 767.36 595.2zM507.328 593.312c31.04 0 56.256 25.152 56.256 56.288 0 17.12-9.28 49.696-18.72 75.392-7.712 20.736-15.488 36.992-37.536 36.992-20.224 0-29.856-16.416-37.472-37.28-9.408-25.664-18.752-58.048-18.752-75.136C451.072 618.464 476.256 593.312 507.328 593.312L507.328 593.312zM507.328 593.312" p-id="16012"></path></svg>