<?xml version="1.0" standalone="no"?><!DOCTYPE svg PUBLIC "-//W3C//DTD SVG 1.1//EN" "http://www.w3.org/Graphics/SVG/1.1/DTD/svg11.dtd"><svg class="icon" style="" viewBox="0 0 1024 1024" version="1.1" xmlns="http://www.w3.org/2000/svg" p-id="1063" xmlns:xlink="http://www.w3.org/1999/xlink" width="200" height="200"><defs><style type="text/css"><![CDATA[

]]></style></defs><path d="M948.117752 526.239306c-5.637394-10.379395-143.763265-251.322979-432.530041-251.322979-288.142559 0-434.247148 237.529835-440.3481 247.758804l-7.351432 12.253068 5.476735 13.329587c4.223185 10.392698 108.560508 256.45179 442.222797 256.45179 334.289576 0 430.494685-244.048295 434.403714-254.43076l4.692882-12.406564L948.117752 526.239306zM511.396249 728.802768c-102.05535 0-184.78761-84.482113-184.78761-188.69357 0-104.21555 82.73226-188.69357 184.78761-188.69357 102.05842 0 184.791703 84.47802 184.791703 188.69357C696.187953 644.321678 613.45467 728.802768 511.396249 728.802768zM511.396249 427.128007c61.235666 0 110.87318 50.582025 110.87318 112.981191 0 62.396095-49.637514 112.981191-110.87318 112.981191-61.232596 0-110.87318-50.585095-110.87318-112.981191C400.523069 477.710033 450.163653 427.128007 511.396249 427.128007z" p-id="1064"></path></svg>