<?xml version="1.0" standalone="no"?><!DOCTYPE svg PUBLIC "-//W3C//DTD SVG 1.1//EN" "http://www.w3.org/Graphics/SVG/1.1/DTD/svg11.dtd"><svg class="icon" style="" viewBox="0 0 1024 1024" version="1.1" xmlns="http://www.w3.org/2000/svg" p-id="13900" xmlns:xlink="http://www.w3.org/1999/xlink" width="200" height="200"><defs><style type="text/css"><![CDATA[

]]></style></defs><path d="M502.924297 64.047712l0 0.974188-9.724479 0c-236.281401 0-429.157223 192.227046-429.157223 428.508447l0 18.166755 0.01535 0 0 447.737394 456.571596 0 0-0.75827 9.41851 0c236.281401 0 429.395654-192.234209 429.395654-428.51561l0-9.852392 0.052189 0L959.495894 64.047712 502.924297 64.047712zM717.547423 408.392294c-57.068763 0-103.332437-46.263673-103.332437-103.332437 0-57.069787 46.263673-103.33346 103.332437-103.33346 57.068763 0 103.335507 46.263673 103.335507 103.33346C820.882929 362.127597 774.616186 408.392294 717.547423 408.392294z" p-id="13901"></path></svg>