<?xml version="1.0" standalone="no"?><!DOCTYPE svg PUBLIC "-//W3C//DTD SVG 1.1//EN" "http://www.w3.org/Graphics/SVG/1.1/DTD/svg11.dtd"><svg class="icon" style="" viewBox="0 0 1024 1024" version="1.1" xmlns="http://www.w3.org/2000/svg" p-id="17418" xmlns:xlink="http://www.w3.org/1999/xlink" width="200" height="200"><defs><style type="text/css"><![CDATA[

]]></style></defs><path d="M653.716 965.548 370.262 965.548c-93.938 0-170.072-76.146-170.072-170.094l0-113.38c0-74.454 48.146-137.046 114.774-160.098-36.284-48.962-58.082-111.67-58.082-180.048 0-156.56 114.216-283.476 255.12-283.476 140.89 0 255.122 126.916 255.122 283.476 0 68.378-21.8 131.086-58.096 180.048 66.628 23.05 114.786 85.644 114.786 160.098l0 113.38C823.81 889.402 747.666 965.548 653.716 965.548zM710.428 341.928c0-125.264-88.852-226.786-198.428-226.786-109.596 0-198.428 101.522-198.428 226.786 0 125.242 88.832 226.764 198.428 226.764C621.576 568.69 710.428 467.17 710.428 341.928zM767.122 696.262c0-60.27-45.736-110.48-107.022-123.822-41.792 33.202-92.812 52.944-148.1 52.944s-106.306-19.742-148.1-52.944c-61.288 13.342-107.02 63.552-107.02 123.822l0 85.028c0 70.456 62.304 127.568 139.152 127.568l231.924 0c76.86 0 139.164-57.114 139.164-127.568L767.12 696.262z" p-id="17419"></path></svg>